<svg aria-hidden="true" style="position:absolute;width:0;height:0" xmlns="http://www.w3.org/2000/svg" overflow="hidden"><defs><symbol id="icon-done" viewBox="0 0 45 32"><path d="M14.255 25.313L3.564 15.283 0 18.626l14.255 13.373L44.8 3.342 41.236-.001 14.254 25.312z"/></symbol><symbol id="icon-save" viewBox="0 0 32 32"><path  d="M24.889 0H3.556A3.555 3.555 0 000 3.556v24.889a3.555 3.555 0 003.556 3.556h24.889c1.956 0 3.556-1.6 3.556-3.556V7.112L24.89.001zm3.555 28.444H3.555V3.555h19.858l5.031 5.031v19.858zM16 16c-2.951 0-5.333 2.382-5.333 5.333s2.382 5.333 5.333 5.333 5.333-2.382 5.333-5.333A5.326 5.326 0 0016 16zM5.333 5.333h16v7.111h-16V5.333z"/></symbol><symbol id="icon-arrow" viewBox="0 0 45 32"><path  d="M30.168 31.519a1.564 1.564 0 01-2.258 0 1.637 1.637 0 010-2.27l11.448-11.63H1.58c-.881-.001-1.581-.712-1.581-1.607s.7-1.629 1.581-1.629h37.778L27.91 2.775c-.61-.642-.61-1.675 0-2.294.632-.642 1.649-.642 2.258 0l14.158 14.383c.632.62.632 1.652 0 2.27L30.168 31.518z"/></symbol><symbol id="icon-go" viewBox="0 0 50 32"><path  d="M18.343 7.814v15.427c0 2.827-.701 4.897-2.104 6.211-1.402 1.336-3.528 2.003-6.378 2.003-4.92 0-7.613-1.792-8.081-5.376h4.708c.178.779.545 1.336 1.102 1.67.557.356 1.347.534 2.371.534 1.491 0 2.493-.367 3.005-1.102.512-.712.779-1.837.801-3.373l.033-1.937c-1.291 1.781-3.05 2.671-5.276 2.671-2.248 0-4.04-.768-5.376-2.304-1.313-1.536-1.97-3.595-1.97-6.177 0-2.627.69-4.73 2.07-6.311 1.38-1.603 3.206-2.404 5.476-2.404 1.202 0 2.193.223 2.972.668.801.423 1.525 1.124 2.17 2.104V7.814h4.474zm-5.576 4.507c-.712-.868-1.692-1.302-2.938-1.302s-2.226.445-2.938 1.336c-.69.868-1.035 2.093-1.035 3.673 0 1.514.356 2.727 1.069 3.64.735.89 1.714 1.336 2.938 1.336s2.193-.456 2.905-1.369c.712-.913 1.069-2.148 1.069-3.706 0-1.536-.356-2.738-1.069-3.606zm18.61-5.008c2.649 0 4.775.835 6.378 2.504 1.625 1.67 2.438 3.873 2.438 6.611 0 2.76-.813 4.975-2.438 6.645-1.603 1.67-3.751 2.504-6.445 2.504s-4.853-.835-6.478-2.504c-1.625-1.67-2.438-3.885-2.438-6.645 0-2.738.824-4.942 2.471-6.611s3.818-2.504 6.511-2.504zm-.134 3.606c-1.269 0-2.271.49-3.005 1.469s-1.102 2.326-1.102 4.04c0 1.759.367 3.128 1.102 4.107s1.759 1.469 3.072 1.469c1.313 0 2.326-.49 3.039-1.469.735-1.002 1.102-2.382 1.102-4.141 0-1.714-.378-3.05-1.135-4.007-.735-.979-1.759-1.469-3.072-1.469zm18.043-9.65v6.344l-1.302 10.184h-2.371L44.311 7.679V1.268h4.975zm.1 18.666v5.109H44.21v-5.109h5.176z"/></symbol><symbol id="icon-fire" viewBox="0 0 21 32"><path  d="M5.548 32C2.002 20.278 9.494 15.999 9.494 15.999c-.524 6.255 3.019 11.128 3.019 11.128 1.303-.395 3.79-2.238 3.79-2.238 0 2.238-1.312 7.109-1.312 7.109s4.594-3.564 6.04-9.483c1.444-5.919-2.751-11.861-2.751-11.861a15.904 15.904 0 01-3.928 11.458c.138-.161.255-.338.344-.532.497-.998 1.296-3.591.828-9.596C14.866 3.555 7.253 0 7.253 0c.656 5.136-1.311 6.319-5.92 16.068C-3.276 25.815 5.548 32 5.548 32z"/></symbol><symbol id="icon-plus" viewBox="0 0 32 32"><path  d="M2.32 14.481h12.16V2.321a1.52 1.52 0 013.04 0v12.16h12.16a1.52 1.52 0 010 3.04H17.52v12.16a1.52 1.52 0 01-3.04 0v-12.16H2.32a1.52 1.52 0 010-3.04z"/></symbol>
<symbol id="icon-star" viewBox="0 0 32 32"><path  d="M30.608 11.163l-8.812-.833a1.523 1.523 0 01-1.263-.934l-3.156-7.651c-.505-1.263-2.298-1.263-2.803 0l-3.131 7.651a1.49 1.49 0 01-1.263.934l-8.813.833c-1.313.126-1.843 1.768-.859 2.651l6.641 5.833c.429.379.606.934.48 1.49l-1.995 8.181c-.303 1.288 1.086 2.348 2.247 1.667l7.348-4.318a1.526 1.526 0 011.54 0l7.348 4.318c1.162.681 2.55-.354 2.247-1.667l-1.97-8.181a1.511 1.511 0 01.48-1.49l6.641-5.833c.96-.884.404-2.525-.909-2.651z"/></symbol><symbol id="icon-clear" viewBox="0 0 32 32"><path  d="M32 3.223L28.777 0 16 12.777 3.223 0 0 3.223 12.777 16 0 28.777 3.223 32 16 19.223 28.777 32 32 28.777 19.223 16 32 3.223z"/></symbol><symbol id="icon-calendar" viewBox="0 0 27 32"><path  d="M9.143 14.4H6.095v3.2h3.048v-3.2zm6.095 0H12.19v3.2h3.048v-3.2zm6.095 0h-3.048v3.2h3.048v-3.2zm3.048-11.2h-1.524V0h-3.048v3.2H7.618V0H4.57v3.2H3.046C1.355 3.2.014 4.64.014 6.4l-.015 22.4c0 1.76 1.356 3.2 3.048 3.2H24.38c1.676 0 3.048-1.44 3.048-3.2V6.4c0-1.76-1.371-3.2-3.048-3.2zm0 25.6H3.048V11.2h21.333v17.6z"/></symbol>
<symbol id="icon-trophy" viewBox="0 0 24 24"><path  d="M25.585 1.47h-2.613c.009-.289.015-.581.015-.873A.596.596 0 0022.391 0H9.611a.597.597 0 00-.597.597c0 .293.005.584.015.873H6.416a.597.597 0 00-.597.597c0 2.673.699 5.195 1.967 7.102 1.254 1.885 2.924 2.966 4.728 3.071.409.445.842.808 1.292 1.085v2.652h-1.001c-1.21 0-2.194.984-2.194 2.194v1.001h-.042a.597.597 0 000 1.193h10.863a.597.597 0 100-1.193h-.042v-1.001c0-1.21-.984-2.194-2.194-2.194h-1.001v-2.652c.45-.277.883-.64 1.292-1.085 1.804-.105 3.475-1.186 4.729-3.071 1.268-1.906 1.967-4.428 1.967-7.102a.597.597 0 00-.597-.597zM8.779 8.507C7.733 6.934 7.118 4.878 7.024 2.663h2.071c.215 2.723.854 5.24 1.853 7.238.159.318.325.619.498.902-.992-.375-1.911-1.158-2.667-2.295zm14.442 0c-.757 1.137-1.675 1.921-2.667 2.295.173-.283.339-.584.498-.902.999-1.998 1.638-4.515 1.853-7.238h2.071c-.094 2.215-.708 4.272-1.755 5.844z"/>
</symbol><symbol id="icon-polygon" viewBox="0 0 85 32"><path  d="M42.667 32L5.717 0h73.901l-36.95 32z"/></symbol><symbol id="icon-ellipse" viewBox="0 0 32 32"><path d="M32 16c0-8.837-7.163-16-16-16S0 7.163 0 16s7.163 16 16 16 16-7.163 16-16z"/></symbol><symbol id="icon-logout" viewBox="0 0 41 32"><path  d="M34.324 14.899H12.928a1.847 1.847 0 000 3.694h21.396l-2.388 2.388a1.847 1.847 0 002.612 2.612l5.54-5.54c.043-.043.083-.087.122-.134.009-.011.017-.024.027-.035.028-.036.056-.072.081-.11.007-.011.013-.023.021-.034.025-.04.05-.08.072-.121l.012-.025c.023-.045.046-.091.065-.138l.007-.018c.02-.05.039-.1.054-.152l.005-.02c.015-.051.029-.102.039-.155l.007-.047a1.873 1.873 0 00.02-.5c-.004-.045-.012-.089-.02-.133l-.007-.046a1.975 1.975 0 00-.039-.156l-.005-.018a1.638 1.638 0 00-.055-.153l-.006-.017a1.612 1.612 0 00-.066-.139l-.012-.024c-.023-.042-.048-.082-.073-.122l-.02-.033c-.025-.038-.053-.074-.081-.11l-.026-.035a1.938 1.938 0 00-.122-.134l-5.54-5.54c-.361-.361-.833-.541-1.306-.541s-.945.18-1.306.541a1.847 1.847 0 000 2.612l2.388 2.388z"/><path  d="M15.107 31.853c5.041 0 9.731-2.501 12.546-6.689a1.847 1.847 0 10-3.066-2.06 11.406 11.406 0 01-9.48 5.056c-6.293 0-11.413-5.12-11.413-11.413S8.814 5.334 15.107 5.334c3.798 0 7.336 1.882 9.465 5.033a1.847 1.847 0 003.06-2.068A15.099 15.099 0 0015.106 1.64C6.776 1.64-.001 8.417-.001 16.747s6.777 15.107 15.107 15.107z"/></symbol></defs></svg>