<svg aria-hidden="true" style="position:absolute;width:0;height:0" xmlns="http://www.w3.org/2000/svg" overflow="hidden"><defs><symbol id="icon-done" viewBox="0 0 45 32"><path d="M14.255 25.313L3.564 15.283 0 18.626l14.255 13.373L44.8 3.342 41.236-.001 14.254 25.312z"/></symbol><symbol id="icon-save" viewBox="0 0 32 32"><path  d="M24.889 0H3.556A3.555 3.555 0 000 3.556v24.889a3.555 3.555 0 003.556 3.556h24.889c1.956 0 3.556-1.6 3.556-3.556V7.112L24.89.001zm3.555 28.444H3.555V3.555h19.858l5.031 5.031v19.858zM16 16c-2.951 0-5.333 2.382-5.333 5.333s2.382 5.333 5.333 5.333 5.333-2.382 5.333-5.333A5.326 5.326 0 0016 16zM5.333 5.333h16v7.111h-16V5.333z"/></symbol><symbol id="icon-arrow" viewBox="0 0 45 32"><path  d="M30.168 31.519a1.564 1.564 0 01-2.258 0 1.637 1.637 0 010-2.27l11.448-11.63H1.58c-.881-.001-1.581-.712-1.581-1.607s.7-1.629 1.581-1.629h37.778L27.91 2.775c-.61-.642-.61-1.675 0-2.294.632-.642 1.649-.642 2.258 0l14.158 14.383c.632.62.632 1.652 0 2.27L30.168 31.518z"/></symbol><symbol id="icon-go" viewBox="0 0 50 32"><path  d="M18.343 7.814v15.427c0 2.827-.701 4.897-2.104 6.211-1.402 1.336-3.528 2.003-6.378 2.003-4.92 0-7.613-1.792-8.081-5.376h4.708c.178.779.545 1.336 1.102 1.67.557.356 1.347.534 2.371.534 1.491 0 2.493-.367 3.005-1.102.512-.712.779-1.837.801-3.373l.033-1.937c-1.291 1.781-3.05 2.671-5.276 2.671-2.248 0-4.04-.768-5.376-2.304-1.313-1.536-1.97-3.595-1.97-6.177 0-2.627.69-4.73 2.07-6.311 1.38-1.603 3.206-2.404 5.476-2.404 1.202 0 2.193.223 2.972.668.801.423 1.525 1.124 2.17 2.104V7.814h4.474zm-5.576 4.507c-.712-.868-1.692-1.302-2.938-1.302s-2.226.445-2.938 1.336c-.69.868-1.035 2.093-1.035 3.673 0 1.514.356 2.727 1.069 3.64.735.89 1.714 1.336 2.938 1.336s2.193-.456 2.905-1.369c.712-.913 1.069-2.148 1.069-3.706 0-1.536-.356-2.738-1.069-3.606zm18.61-5.008c2.649 0 4.775.835 6.378 2.504 1.625 1.67 2.438 3.873 2.438 6.611 0 2.76-.813 4.975-2.438 6.645-1.603 1.67-3.751 2.504-6.445 2.504s-4.853-.835-6.478-2.504c-1.625-1.67-2.438-3.885-2.438-6.645 0-2.738.824-4.942 2.471-6.611s3.818-2.504 6.511-2.504zm-.134 3.606c-1.269 0-2.271.49-3.005 1.469s-1.102 2.326-1.102 4.04c0 1.759.367 3.128 1.102 4.107s1.759 1.469 3.072 1.469c1.313 0 2.326-.49 3.039-1.469.735-1.002 1.102-2.382 1.102-4.141 0-1.714-.378-3.05-1.135-4.007-.735-.979-1.759-1.469-3.072-1.469zm18.043-9.65v6.344l-1.302 10.184h-2.371L44.311 7.679V1.268h4.975zm.1 18.666v5.109H44.21v-5.109h5.176z"/></symbol><symbol id="icon-fire" viewBox="0 0 21 32"><path  d="M5.548 32C2.002 20.278 9.494 15.999 9.494 15.999c-.524 6.255 3.019 11.128 3.019 11.128 1.303-.395 3.79-2.238 3.79-2.238 0 2.238-1.312 7.109-1.312 7.109s4.594-3.564 6.04-9.483c1.444-5.919-2.751-11.861-2.751-11.861a15.904 15.904 0 01-3.928 11.458c.138-.161.255-.338.344-.532.497-.998 1.296-3.591.828-9.596C14.866 3.555 7.253 0 7.253 0c.656 5.136-1.311 6.319-5.92 16.068C-3.276 25.815 5.548 32 5.548 32z"/></symbol><symbol id="icon-plus" viewBox="0 0 32 32"><path  d="M2.32 14.481h12.16V2.321a1.52 1.52 0 013.04 0v12.16h12.16a1.52 1.52 0 010 3.04H17.52v12.16a1.52 1.52 0 01-3.04 0v-12.16H2.32a1.52 1.52 0 010-3.04z"/></symbol><symbol id="icon-star" viewBox="0 0 32 32"><path  d="M30.608 11.163l-8.812-.833a1.523 1.523 0 01-1.263-.934l-3.156-7.651c-.505-1.263-2.298-1.263-2.803 0l-3.131 7.651a1.49 1.49 0 01-1.263.934l-8.813.833c-1.313.126-1.843 1.768-.859 2.651l6.641 5.833c.429.379.606.934.48 1.49l-1.995 8.181c-.303 1.288 1.086 2.348 2.247 1.667l7.348-4.318a1.526 1.526 0 011.54 0l7.348 4.318c1.162.681 2.55-.354 2.247-1.667l-1.97-8.181a1.511 1.511 0 01.48-1.49l6.641-5.833c.96-.884.404-2.525-.909-2.651z"/></symbol><symbol id="icon-clear" viewBox="0 0 32 32"><path  d="M32 3.223L28.777 0 16 12.777 3.223 0 0 3.223 12.777 16 0 28.777 3.223 32 16 19.223 28.777 32 32 28.777 19.223 16 32 3.223z"/></symbol><symbol id="icon-calendar" viewBox="0 0 27 32"><path  d="M9.143 14.4H6.095v3.2h3.048v-3.2zm6.095 0H12.19v3.2h3.048v-3.2zm6.095 0h-3.048v3.2h3.048v-3.2zm3.048-11.2h-1.524V0h-3.048v3.2H7.618V0H4.57v3.2H3.046C1.355 3.2.014 4.64.014 6.4l-.015 22.4c0 1.76 1.356 3.2 3.048 3.2H24.38c1.676 0 3.048-1.44 3.048-3.2V6.4c0-1.76-1.371-3.2-3.048-3.2zm0 25.6H3.048V11.2h21.333v17.6z"/></symbol><symbol id="icon-trophy" viewBox="5 -1 21 21"><path  d="M25.585 1.47h-2.613c.009-.289.015-.581.015-.873A.596.596 0 0022.391 0H9.611a.597.597 0 00-.597.597c0 .293.005.584.015.873H6.416a.597.597 0 00-.597.597c0 2.673.699 5.195 1.967 7.102 1.254 1.885 2.924 2.966 4.728 3.071.409.445.842.808 1.292 1.085v2.652h-1.001c-1.21 0-2.194.984-2.194 2.194v1.001h-.042a.597.597 0 000 1.193h10.863a.597.597 0 100-1.193h-.042v-1.001c0-1.21-.984-2.194-2.194-2.194h-1.001v-2.652c.45-.277.883-.64 1.292-1.085 1.804-.105 3.475-1.186 4.729-3.071 1.268-1.906 1.967-4.428 1.967-7.102a.597.597 0 00-.597-.597zM8.779 8.507C7.733 6.934 7.118 4.878 7.024 2.663h2.071c.215 2.723.854 5.24 1.853 7.238.159.318.325.619.498.902-.992-.375-1.911-1.158-2.667-2.295zm14.442 0c-.757 1.137-1.675 1.921-2.667 2.295.173-.283.339-.584.498-.902.999-1.998 1.638-4.515 1.853-7.238h2.071c-.094 2.215-.708 4.272-1.755 5.844z"/></symbol><symbol id="icon-polygon" viewBox="0 -12 85 32"><path  d="M42.667 32L5.717 0h73.901l-36.95 32z"/></symbol><symbol id="icon-ellipse" viewBox="0 0 32 32"><path d="M32 16c0-8.837-7.163-16-16-16S0 7.163 0 16s7.163 16 16 16 16-7.163 16-16z"/></symbol><symbol id="icon-logout" viewBox="0 0 41 32"><path  d="M34.324 14.899H12.928a1.847 1.847 0 000 3.694h21.396l-2.388 2.388a1.847 1.847 0 002.612 2.612l5.54-5.54c.043-.043.083-.087.122-.134.009-.011.017-.024.027-.035.028-.036.056-.072.081-.11.007-.011.013-.023.021-.034.025-.04.05-.08.072-.121l.012-.025c.023-.045.046-.091.065-.138l.007-.018c.02-.05.039-.1.054-.152l.005-.02c.015-.051.029-.102.039-.155l.007-.047a1.873 1.873 0 00.02-.5c-.004-.045-.012-.089-.02-.133l-.007-.046a1.975 1.975 0 00-.039-.156l-.005-.018a1.638 1.638 0 00-.055-.153l-.006-.017a1.612 1.612 0 00-.066-.139l-.012-.024c-.023-.042-.048-.082-.073-.122l-.02-.033c-.025-.038-.053-.074-.081-.11l-.026-.035a1.938 1.938 0 00-.122-.134l-5.54-5.54c-.361-.361-.833-.541-1.306-.541s-.945.18-1.306.541a1.847 1.847 0 000 2.612l2.388 2.388z"/><path  d="M15.107 31.853c5.041 0 9.731-2.501 12.546-6.689a1.847 1.847 0 10-3.066-2.06 11.406 11.406 0 01-9.48 5.056c-6.293 0-11.413-5.12-11.413-11.413S8.814 5.334 15.107 5.334c3.798 0 7.336 1.882 9.465 5.033a1.847 1.847 0 003.06-2.068A15.099 15.099 0 0015.106 1.64C6.776 1.64-.001 8.417-.001 16.747s6.777 15.107 15.107 15.107z"/></symbol><symbol id="icon-award" viewBox="0 0 32 32"><path fill="var(--color1, #eaeaea)" d="M26.753 15.062h4.23a.576.576 0 00-.415-.432l-.004-.001a.598.598 0 00-.581-.744.633.633 0 00-.266.061l.004-.002a.812.812 0 00-.735-.476h-.002a.807.807 0 00-.755.523l-.002.006a.607.607 0 00-.341-.103h-.006a.63.63 0 00-.629.629c0 .03.003.06.007.09a.575.575 0 00-.505.445l-.001.004zM1.959 16.775h4.47a.606.606 0 00-.442-.456.632.632 0 00-.892-.724l.004-.002a.854.854 0 00-.778-.502H4.32a.855.855 0 00-.799.553l-.002.006a.645.645 0 00-.362-.11h-.004a.665.665 0 00-.665.665c0 .033.003.063.007.093a.61.61 0 00-.535.476zm24.248-11.99h5.325a.723.723 0 00-.524-.541l-.005-.001a.803.803 0 00.023-.183v-.001-.001a.75.75 0 00-.751-.751h-.001a.712.712 0 00-.329.077 1.017 1.017 0 00-1.877.06l-.002.007a.765.765 0 00-.428-.13h-.005a.794.794 0 00-.792.791c0 .037.003.077.007.113a.714.714 0 00-.641.554l-.001.005zM0 7.459h4.849a.656.656 0 00-.478-.494l-.005-.001a.705.705 0 00.02-.166v-.001a.684.684 0 00-.684-.684h-.001a.642.642 0 00-.299.07.926.926 0 00-1.707.057l-.002.006a.72.72 0 00-.395-.116h-.001-.001a.721.721 0 00-.721.721v.001c0 .033.003.07.007.103a.645.645 0 00-.581.501L0 7.46zm.472 20.932h3.721a.507.507 0 00-.365-.378l-.003-.001a.527.527 0 00-.508-.656c-.083 0-.16.02-.23.053a.713.713 0 00-.647-.416h-.002-.001a.708.708 0 00-.663.461l-.002.005a.547.547 0 00-.301-.09h-.002-.002a.551.551 0 00-.551.551v.001a.54.54 0 00.007.08.504.504 0 00-.452.386l-.001.003zM10.509 4.09h4.719a.642.642 0 00-.464-.481l-.004-.001a.665.665 0 00-.645-.828h-.001a.672.672 0 00-.292.066.902.902 0 00-1.664.054l-.002.006a.686.686 0 00-.385-.116h-.001-.001a.702.702 0 00-.694.806v-.004a.637.637 0 00-.565.499zm17.557 23.194h3.721a.506.506 0 00-.366-.378l-.003-.001a.526.526 0 00-.508-.655c-.083 0-.16.02-.23.053a.713.713 0 00-.647-.416h-.002-.001a.708.708 0 00-.663.461l-.002.005a.547.547 0 00-.301-.09h-.002-.001a.551.551 0 00-.551.551v.001c0 .026.003.053.007.08a.495.495 0 00-.452.386l-.001.003z"/><path fill="var(--color2, #d67412)" d="M16.32 28.421a.922.922 0 01-.968 0l-7.417-4.796c-.559-.359-.236-1.078.482-1.078H23.25c.718 0 1.041.715.482 1.078l-7.413 4.796z"/><path fill="var(--color3, #fc842c)" d="M13.729 28.292c-.053.063-.136.063-.19 0l-1.636-1.969L10.4 24.52c-.083-.103-.026-.276.093-.276h6.292c.12 0 .18.176.093.276l-1.503 1.803-1.646 1.969z"/><path fill="var(--color3, #fc842c)" d="M17.803 28.418c-.057.07-.15.07-.206 0l-1.809-2.168-1.656-1.989c-.093-.113-.026-.306.103-.306h6.931c.133 0 .196.193.103.306l-1.656 1.989-1.809 2.168z"/><path fill="var(--color3, #fc842c)" d="M15.804 29.569c-.046.056-.12.056-.166 0l-2.787-3.339c-.076-.09-.023-.246.083-.246h5.574c.106 0 .16.156.083.246l-1.334 1.596-1.453 1.743z"/><path fill="var(--color4, #f99943)" d="M19.014 24.637h-.795c-.093 0-.17-.087-.17-.193s.077-.193.17-.193h.795c.093 0 .169.086.169.193s-.076.193-.169.193zm.528 0h-.113c-.093 0-.17-.087-.17-.193s.077-.193.17-.193h.113c.093 0 .169.086.169.193s-.076.193-.169.193zm-3.877.608h-.938c-.11 0-.2-.1-.2-.226s.09-.226.2-.226h.938c.11 0 .199.1.199.226s-.09.226-.2.226zm.625 0h-.133c-.11 0-.2-.1-.2-.226s.09-.226.2-.226h.133c.11 0 .2.1.2.226s-.09.226-.2.226zm-.503 3.027h-.542c-.063 0-.116-.06-.116-.13s.053-.13.117-.13h.542c.063 0 .116.06.116.13s-.05.13-.116.13zm.363 0h-.077c-.063 0-.117-.06-.117-.13s.053-.13.117-.13h.077c.063 0 .116.06.116.13s-.05.13-.116.13zm-3.19-3.22c0 .16-.113.286-.256.286h-.772c-.14 0-.256-.13-.256-.286 0-.16.113-.286.256-.286h.772c.143 0 .256.126.256.286z"/><path fill="var(--color4, #f99943)" d="M13.536 25.465c0 .16-.113.286-.256.286h-.772c-.14 0-.256-.13-.256-.286 0-.16.113-.286.256-.286h.772c.143 0 .256.126.256.286zm4.446.229c0-.123-.09-.226-.2-.226h-.609c-.11 0-.2.1-.2.226 0 .123.09.226.2.226h.609c.11 0 .2-.1.2-.226z"/><path fill="var(--color4, #f99943)" d="M18.435 25.372c0-.123-.09-.226-.2-.226h-.605c-.11 0-.2.1-.2.226 0 .123.09.226.2.226h.605c.11-.003.2-.103.2-.226zm-.246 1.1c-.133 0-.243.123-.243.273a.3.3 0 00.026.12h-.159c-.133 0-.243.123-.243.273 0 .153.11.273.243.273h.821l.788-.945h-1.234v.007zm-4.713.197h-.16a.284.284 0 00.026-.12c0-.153-.11-.273-.243-.273h-1.237l.04.05.745.894h.828c.133 0 .243-.123.243-.273 0-.156-.11-.279-.243-.279zm2.544-.343c0 .143-.103.256-.23.256h-1.064c-.126 0-.23-.117-.23-.256 0-.143.103-.256.23-.256h1.064c.13 0 .23.113.23.256zm-.419.406c0-.083.06-.15.133-.15h-.505c.073 0 .133.066.133.15s-.06.15-.133.15h.505c-.076 0-.133-.066-.133-.15zM16.509 27.108c0 .126-.09.226-.2.226h-1.261c-.11 0-.2-.1-.2-.226s.09-.226.2-.226h1.261c.11 0 .2.103.2.226z"/><path fill="var(--color5, #bc5800)" d="M25.116 20.942a.159.159 0 00-.136-.087H6.691a.157.157 0 00-.136.087.195.195 0 00-.003.177v-.001l1.194 2.507c.026.06.083.093.14.093H23.79a.156.156 0 00.139-.092v-.001l1.194-2.507a.213.213 0 00-.007-.178l.001.001z"/><path fill="var(--color6, #aa5000)" d="M10.859 23.217H9.316c-.183 0-.329-.166-.329-.373s.146-.373.329-.373h1.543c.183 0 .329.166.329.373s-.146.373-.329.373zm1.027 0h-.22c-.183 0-.329-.166-.329-.373s.146-.373.329-.373h.22c.183 0 .329.166.329.373s-.146.373-.329.373zm8.72-.712h1.41c.166 0 .303.153.303.339s-.136.339-.303.339h-1.41c-.166 0-.303-.153-.303-.339s.136-.339.303-.339zm-.941 0h.203c.166 0 .303.153.303.339s-.136.339-.303.339h-.203c-.166 0-.302-.153-.302-.339s.136-.339.302-.339zm-3.339.093c0 .203-.146.369-.326.369h-.915c-.18 0-.326-.166-.326-.369s.146-.369.326-.369H16c.18 0 .326.166.326.369z"/><path fill="var(--color6, #aa5000)" d="M17.211 23.004c0 .209-.153.382-.339.382h-.935c-.186 0-.339-.17-.339-.382 0-.21.153-.383.339-.383h.935c.186 0 .339.173.339.383z"/><path fill="var(--color7, #dfdfdf)" d="M25.186 21.83c0 .076-.053.136-.123.136H6.399c-.067 0-.123-.06-.123-.136v-1.533c0-.076.053-.136.123-.136h18.664c.066 0 .123.06.123.136v1.533z"/><path fill="var(--color8, #c3c3c3)" d="M25.063 20.16h-.126v1.42c0 .077-.053.136-.123.136H6.276v.117c0 .076.053.136.123.136h18.664c.066 0 .123-.06.123-.136V20.3c0-.08-.057-.14-.123-.14z"/><path fill="var(--color9, #fff)" d="M8.055 20.965H7.19c-.103 0-.186-.093-.186-.209s.083-.21.186-.21h.865c.103 0 .186.093.186.21s-.083.21-.186.21zm.579 0h-.123c-.103 0-.186-.093-.186-.209s.083-.21.186-.21h.123c.103 0 .186.093.186.21-.003.117-.086.21-.186.21z"/><path fill="var(--color1, #eaeaea)" d="M18.016 26.326h4.905a.67.67 0 00-.481-.501l-.005-.001a.711.711 0 00.02-.169v-.001a.69.69 0 00-.998-.619l.004-.002a.934.934 0 00-.849-.549h-.006a.937.937 0 00-.876.606l-.002.006a.728.728 0 00-1.127.609c0 .036.003.07.007.103a.666.666 0 00-.591.514l-.001.004zm-9.658-.715h5.85a.795.795 0 00-.577-.598l-.005-.001a.825.825 0 00-.798-1.028c-.13 0-.253.03-.363.083a1.122 1.122 0 00-1.018-.655h-.003a1.11 1.11 0 00-1.042.724l-.002.008a.868.868 0 00-1.343.725c0 .043.004.083.01.123a.8.8 0 00-.708.619z"/><path fill="var(--color10, #00d7ff)" d="M15.618 20.047a7.506 7.506 0 100-15.012 7.506 7.506 0 000 15.012z"/><path fill="var(--color9, #fff)" d="M19.962 16.884a6.142 6.142 0 10-8.686-8.687 6.142 6.142 0 008.686 8.687z"/><path fill="var(--color10, #00d7ff)" d="M15.618 17.2a4.66 4.66 0 100-9.318 4.66 4.66 0 000 9.318z"/><path fill="var(--color9, #fff)" d="M18.01 14.932a3.382 3.382 0 10-4.782-4.783 3.382 3.382 0 004.782 4.783z"/><path fill="var(--color10, #00d7ff)" d="M17.406 13.478a2.02 2.02 0 00-3.571-1.887l-.005.011a2.02 2.02 0 003.571 1.887l.005-.011z"/><path fill="var(--color9, #fff)" d="M15.749 13.631a1.098 1.098 0 10-.265-2.18l.005-.001a1.098 1.098 0 10.265 2.18l-.005.001z"/><path fill="var(--color11, #ff7b00)" d="M19.942 10.642l.665-2.631 3.994-1.709-.815 2.511 2.385 1.084-3.911 1.836-2.318-1.091z"/><path fill="var(--color12, #ff9557)" d="M15.492 12.996a.517.517 0 01-.298-.276l-.001-.003a.52.52 0 01.26-.687l.003-.001 8.694-3.891a.521.521 0 01.425.952l-8.694 3.891a.502.502 0 01-.393.015l.004.001z"/></symbol><symbol id="icon-cup" viewBox="0 0 32 32">
<path fill="#eaeaea" style="fill: var(--color1, #eaeaea)" d="M27.128 17.095h4.283c-0.047-0.215-0.212-0.384-0.424-0.438 0.014-0.047 0.017-0.098 0.017-0.148 0-0.333-0.269-0.606-0.606-0.606-0.094 0-0.185 0.024-0.266 0.061-0.128-0.283-0.414-0.482-0.744-0.482-0.354 0-0.653 0.222-0.768 0.535-0.101-0.067-0.219-0.104-0.35-0.104-0.35 0-0.636 0.286-0.636 0.636 0 0.030 0.003 0.061 0.007 0.091-0.253 0.027-0.458 0.212-0.512 0.455z"></path>
<path fill="#eaeaea" style="fill: var(--color1, #eaeaea)" d="M2.028 18.832h4.525c-0.051-0.226-0.226-0.407-0.448-0.461 0.013-0.050 0.020-0.101 0.020-0.158 0-0.354-0.286-0.64-0.64-0.64-0.101 0-0.195 0.024-0.279 0.064-0.135-0.3-0.438-0.508-0.788-0.508-0.374 0-0.69 0.236-0.811 0.566-0.104-0.071-0.232-0.111-0.37-0.111-0.37 0-0.673 0.3-0.673 0.673 0 0.034 0.003 0.064 0.007 0.094-0.266 0.027-0.485 0.222-0.542 0.481z"></path>
<path fill="#eaeaea" style="fill: var(--color1, #eaeaea)" d="M26.576 6.695h5.387c-0.061-0.269-0.27-0.485-0.535-0.549 0.014-0.061 0.023-0.121 0.023-0.185 0-0.421-0.34-0.761-0.761-0.761-0.121 0-0.233 0.027-0.334 0.077-0.162-0.357-0.522-0.606-0.936-0.606-0.444 0-0.822 0.279-0.966 0.673-0.125-0.084-0.276-0.131-0.438-0.131-0.441 0-0.801 0.36-0.801 0.801 0 0.037 0.003 0.077 0.007 0.114-0.32 0.024-0.579 0.259-0.646 0.566z"></path>
<path fill="#eaeaea" style="fill: var(--color1, #eaeaea)" d="M0.045 9.402h4.909c-0.054-0.246-0.242-0.441-0.488-0.502 0.013-0.054 0.020-0.111 0.020-0.168 0-0.384-0.31-0.694-0.694-0.694-0.108 0-0.212 0.024-0.303 0.071-0.148-0.323-0.475-0.549-0.852-0.549-0.404 0-0.747 0.256-0.879 0.613-0.114-0.074-0.253-0.118-0.401-0.118-0.404 0-0.731 0.327-0.731 0.731 0 0.034 0.003 0.071 0.007 0.104-0.29 0.020-0.525 0.232-0.589 0.512z"></path>
<path fill="#eaeaea" style="fill: var(--color1, #eaeaea)" d="M0.526 30.593h3.768c-0.040-0.189-0.189-0.337-0.374-0.384 0.010-0.041 0.017-0.084 0.017-0.131 0-0.293-0.239-0.532-0.532-0.532-0.084 0-0.162 0.020-0.232 0.054-0.115-0.249-0.364-0.421-0.657-0.421-0.31 0-0.572 0.195-0.673 0.471-0.088-0.057-0.192-0.091-0.306-0.091-0.31 0-0.559 0.249-0.559 0.559 0 0.027 0.003 0.054 0.007 0.081-0.229 0.017-0.411 0.182-0.458 0.394z"></path>
<path fill="#eaeaea" style="fill: var(--color1, #eaeaea)" d="M28.459 29.472h3.767c-0.040-0.189-0.188-0.337-0.374-0.384 0.010-0.040 0.017-0.084 0.017-0.131 0-0.293-0.239-0.532-0.532-0.532-0.084 0-0.162 0.020-0.233 0.054-0.114-0.249-0.363-0.421-0.657-0.421-0.31 0-0.572 0.195-0.673 0.471-0.088-0.057-0.192-0.091-0.306-0.091-0.31 0-0.559 0.249-0.559 0.559 0 0.027 0.003 0.054 0.007 0.081-0.229 0.014-0.411 0.178-0.458 0.394z"></path>
<path fill="#d67412" style="fill: var(--color2, #d67412)" d="M16.566 30.623c-0.286 0.185-0.694 0.185-0.98 0l-7.508-4.855c-0.566-0.364-0.239-1.091 0.488-1.091h15.017c0.727 0 1.054 0.724 0.488 1.091l-7.505 4.855z"></path>
<path fill="#fc842c" style="fill: var(--color3, #fc842c)" d="M13.943 30.492c-0.054 0.064-0.138 0.064-0.192 0l-3.182-3.818c-0.084-0.105-0.027-0.279 0.094-0.279h6.37c0.121 0 0.182 0.178 0.094 0.279l-3.185 3.818z"></path>
<path fill="#fc842c" style="fill: var(--color3, #fc842c)" d="M18.068 30.62c-0.057 0.071-0.152 0.071-0.209 0l-1.832-2.195-1.677-2.014c-0.094-0.114-0.027-0.31 0.104-0.31h7.017c0.135 0 0.199 0.195 0.104 0.31l-1.677 2.014-1.832 2.195z"></path>
<path fill="#fc842c" style="fill: var(--color3, #fc842c)" d="M16.044 31.785c-0.047 0.057-0.121 0.057-0.168 0l-2.822-3.381c-0.077-0.091-0.024-0.249 0.084-0.249h5.643c0.108 0 0.162 0.158 0.084 0.249l-1.35 1.616-1.471 1.764z"></path>
<path fill="#f99943" style="fill: var(--color4, #f99943)" d="M19.294 26.792h-0.805c-0.094 0-0.172-0.087-0.172-0.195s0.077-0.195 0.172-0.195h0.805c0.094 0 0.172 0.087 0.172 0.195 0 0.111-0.077 0.195-0.172 0.195z"></path>
<path fill="#f99943" style="fill: var(--color4, #f99943)" d="M19.829 26.792h-0.114c-0.094 0-0.172-0.087-0.172-0.195s0.077-0.195 0.172-0.195h0.114c0.094 0 0.172 0.087 0.172 0.195 0 0.111-0.077 0.195-0.172 0.195z"></path>
<path fill="#f99943" style="fill: var(--color4, #f99943)" d="M15.903 27.408h-0.95c-0.111 0-0.202-0.101-0.202-0.229s0.091-0.229 0.202-0.229h0.95c0.111 0 0.202 0.101 0.202 0.229s-0.091 0.229-0.202 0.229z"></path>
<path fill="#f99943" style="fill: var(--color4, #f99943)" d="M16.536 27.408h-0.135c-0.111 0-0.202-0.101-0.202-0.229s0.091-0.229 0.202-0.229h0.135c0.111 0 0.202 0.101 0.202 0.229s-0.091 0.229-0.202 0.229z"></path>
<path fill="#f99943" style="fill: var(--color4, #f99943)" d="M16.031 30.472h-0.549c-0.064 0-0.118-0.061-0.118-0.131 0-0.074 0.054-0.131 0.118-0.131h0.549c0.064 0 0.118 0.061 0.118 0.131s-0.054 0.131-0.118 0.131z"></path>
<path fill="#f99943" style="fill: var(--color4, #f99943)" d="M16.395 30.472h-0.077c-0.064 0-0.118-0.061-0.118-0.131 0-0.074 0.054-0.131 0.118-0.131h0.077c0.064 0 0.118 0.061 0.118 0.131s-0.050 0.131-0.118 0.131z"></path>
<path fill="#f99943" style="fill: var(--color4, #f99943)" d="M13.166 27.213c0 0.162-0.114 0.29-0.259 0.29h-0.781c-0.141 0-0.259-0.131-0.259-0.29 0-0.162 0.114-0.29 0.259-0.29h0.781c0.145 0 0.259 0.128 0.259 0.29z"></path>
<path fill="#f99943" style="fill: var(--color4, #f99943)" d="M13.748 27.631c0 0.162-0.114 0.29-0.259 0.29h-0.781c-0.141 0-0.259-0.131-0.259-0.29 0-0.162 0.114-0.29 0.259-0.29h0.781c0.145 0 0.259 0.128 0.259 0.29z"></path>
<path fill="#f99943" style="fill: var(--color4, #f99943)" d="M18.25 27.863c0-0.125-0.091-0.229-0.202-0.229h-0.616c-0.111 0-0.202 0.101-0.202 0.229 0 0.125 0.091 0.229 0.202 0.229h0.616c0.111 0 0.202-0.101 0.202-0.229z"></path>
<path fill="#f99943" style="fill: var(--color4, #f99943)" d="M18.708 27.533c0-0.125-0.091-0.229-0.202-0.229h-0.613c-0.111 0-0.202 0.101-0.202 0.229 0 0.125 0.091 0.229 0.202 0.229h0.613c0.111 0 0.202-0.101 0.202-0.229z"></path>
<path fill="#f99943" style="fill: var(--color4, #f99943)" d="M18.459 28.651c-0.135 0-0.246 0.125-0.246 0.276 0 0.044 0.010 0.084 0.027 0.121h-0.162c-0.135 0-0.246 0.125-0.246 0.276 0 0.155 0.111 0.276 0.246 0.276h0.832l0.798-0.956h-1.249v0.007z"></path>
<path fill="#f99943" style="fill: var(--color4, #f99943)" d="M13.688 28.849h-0.162c0.017-0.037 0.027-0.078 0.027-0.121 0-0.155-0.111-0.276-0.246-0.276h-1.252l0.040 0.050 0.754 0.906h0.838c0.135 0 0.246-0.125 0.246-0.276 0-0.158-0.111-0.283-0.246-0.283z"></path>
<path fill="#f99943" style="fill: var(--color4, #f99943)" d="M16.263 28.503c0 0.145-0.104 0.259-0.232 0.259h-1.077c-0.128 0-0.232-0.118-0.232-0.259 0-0.145 0.104-0.259 0.232-0.259h1.077c0.131 0 0.232 0.114 0.232 0.259z"></path>
<path fill="#f99943" style="fill: var(--color4, #f99943)" d="M15.839 28.913c0-0.084 0.061-0.151 0.135-0.151h-0.512c0.074 0 0.135 0.067 0.135 0.151s-0.061 0.151-0.135 0.151h0.508c-0.074 0-0.131-0.067-0.131-0.151z"></path>
<path fill="#f99943" style="fill: var(--color4, #f99943)" d="M16.758 29.294c0 0.128-0.091 0.229-0.202 0.229h-1.276c-0.111 0-0.202-0.101-0.202-0.229s0.091-0.229 0.202-0.229h1.276c0.111 0 0.202 0.104 0.202 0.229z"></path>
<path fill="#bc5800" style="fill: var(--color5, #bc5800)" d="M25.472 23.051c-0.030-0.054-0.081-0.088-0.138-0.088h-18.515c-0.057 0-0.108 0.034-0.138 0.088s-0.030 0.121-0.003 0.178l1.209 2.539c0.027 0.061 0.084 0.094 0.141 0.094h16.101c0.061 0 0.114-0.037 0.141-0.094l1.209-2.539c0.023-0.057 0.020-0.125-0.007-0.178z"></path>
<path fill="#aa5000" style="fill: var(--color6, #aa5000)" d="M11.038 25.354h-1.562c-0.185 0-0.333-0.168-0.333-0.377s0.148-0.377 0.333-0.377h1.562c0.185 0 0.333 0.168 0.333 0.377s-0.148 0.377-0.333 0.377z"></path>
<path fill="#aa5000" style="fill: var(--color6, #aa5000)" d="M12.078 25.354h-0.222c-0.185 0-0.333-0.168-0.333-0.377s0.148-0.377 0.333-0.377h0.222c0.185 0 0.333 0.168 0.333 0.377s-0.148 0.377-0.333 0.377z"></path>
<path fill="#aa5000" style="fill: var(--color6, #aa5000)" d="M20.906 24.634h1.428c0.168 0 0.306 0.155 0.306 0.343s-0.138 0.344-0.306 0.344h-1.428c-0.168 0-0.306-0.155-0.306-0.344s0.138-0.343 0.306-0.343z"></path>
<path fill="#aa5000" style="fill: var(--color6, #aa5000)" d="M19.953 24.634h0.205c0.168 0 0.306 0.155 0.306 0.343s-0.138 0.344-0.306 0.344h-0.205c-0.168 0-0.306-0.155-0.306-0.344s0.138-0.343 0.306-0.343z"></path>
<path fill="#aa5000" style="fill: var(--color6, #aa5000)" d="M16.573 24.728c0 0.205-0.148 0.374-0.33 0.374h-0.926c-0.182 0-0.33-0.168-0.33-0.374s0.148-0.374 0.33-0.374h0.923c0.185 0 0.333 0.165 0.333 0.374z"></path>
<path fill="#aa5000" style="fill: var(--color6, #aa5000)" d="M17.469 25.139c0 0.212-0.155 0.387-0.343 0.387h-0.946c-0.189 0-0.343-0.172-0.343-0.387 0-0.212 0.155-0.387 0.343-0.387h0.946c0.189 0 0.343 0.175 0.343 0.387z"></path>
<path fill="#dfdfdf" style="fill: var(--color7, #dfdfdf)" d="M25.543 23.95c0 0.077-0.054 0.138-0.125 0.138h-18.895c-0.067 0-0.125-0.061-0.125-0.138v-1.552c0-0.077 0.054-0.138 0.125-0.138h18.895c0.067 0 0.125 0.061 0.125 0.138v1.552z"></path>
<path fill="#c3c3c3" style="fill: var(--color8, #c3c3c3)" d="M25.418 22.26h-0.128v1.434c0 0.077-0.054 0.138-0.125 0.138h-18.767v0.118c0 0.077 0.054 0.138 0.125 0.138h18.895c0.067 0 0.125-0.061 0.125-0.138v-1.552c0-0.077-0.057-0.138-0.125-0.138z"></path>
<path fill="#fff" style="fill: var(--color9, #fff)" d="M8.203 23.075h-0.875c-0.104 0-0.189-0.094-0.189-0.212s0.084-0.212 0.189-0.212h0.875c0.104 0 0.189 0.094 0.189 0.212s-0.088 0.212-0.189 0.212z"></path>
<path fill="#fff" style="fill: var(--color9, #fff)" d="M8.785 23.075h-0.125c-0.104 0-0.189-0.094-0.189-0.212s0.084-0.212 0.189-0.212h0.125c0.104 0 0.189 0.094 0.189 0.212s-0.088 0.212-0.189 0.212z"></path>
<path fill="#00d7ff" style="fill: var(--color10, #00d7ff)" d="M16.802 19.361h-1.623l-0.040-5.417 1.623 0.003 0.040 5.414z"></path>
<path fill="#00d7ff" style="fill: var(--color10, #00d7ff)" d="M15.95 18.307l-2.66 2.859 5.36 0.010-2.7-2.869-2.66 2.859 5.36 0.010-2.7-2.869z"></path>
<path fill="#00d7ff" style="fill: var(--color10, #00d7ff)" d="M12.351 14.119c-0.209-0.013-5.101-0.354-5.125-3.949-0.007-0.906 0.246-1.64 0.751-2.185 1.158-1.256 3.246-0.983 3.337-0.97l-0.091 1.047c-0.017-0.003-1.791-0.229-2.66 0.71-0.313 0.343-0.465 0.798-0.461 1.397 0.017 2.596 4.246 2.892 4.286 2.892l-0.037 1.057z"></path>
<path fill="#00d7ff" style="fill: var(--color10, #00d7ff)" d="M19.644 14.129c0.209-0.013 5.094-0.337 5.071-3.933-0.007-0.906-0.269-1.643-0.781-2.189-1.175-1.259-3.259-0.993-3.35-0.983l0.104 1.050c0.017-0.003 1.788-0.226 2.67 0.721 0.32 0.343 0.478 0.801 0.481 1.401 0.017 2.596-4.205 2.879-4.246 2.879l0.050 1.054z"></path>
<path fill="#00d7ff" style="fill: var(--color10, #00d7ff)" d="M10.007 5.193c-0.185 0-0.34 0.148-0.347 0.333-0.007 0.199-0.007 0.401-0.007 0.603 0.040 6.010 2.899 10.885 6.387 10.892s6.283-4.862 6.242-10.872c0-0.205-0.007-0.407-0.013-0.606-0.007-0.185-0.158-0.33-0.343-0.33l-11.919-0.020z"></path>
<path fill="#fff" style="fill: var(--color9, #fff)" d="M12.011 12.466c-0.158 0-0.31-0.091-0.377-0.246-0.549-1.263-0.882-2.747-0.966-4.3-0.013-0.226 0.162-0.421 0.387-0.431 0.226-0.013 0.421 0.162 0.431 0.387 0.077 1.455 0.391 2.845 0.899 4.020 0.091 0.209-0.007 0.451-0.212 0.539-0.050 0.020-0.104 0.030-0.162 0.030z"></path>
<path fill="#fff" style="fill: var(--color9, #fff)" d="M11.065 7.277c-0.003 0-0.007 0-0.010 0-0.226-0.003-0.407-0.192-0.401-0.417 0.003-0.114 0.007-0.229 0.010-0.354 0.010-0.226 0.202-0.401 0.428-0.394 0.226 0.010 0.401 0.202 0.394 0.428-0.007 0.118-0.010 0.226-0.010 0.333-0.007 0.226-0.189 0.404-0.411 0.404z"></path>
<path fill="#fff" style="fill: var(--color9, #fff)" d="M13.105 14.418l0.020 0.010 1.34-0.842 0.215 1.569 0.020 0.007 1.976-4.239-1.596-0.741-1.976 4.236z"></path>
<path fill="#fff" style="fill: var(--color9, #fff)" d="M18.836 14.418l-0.020 0.010-1.34-0.842-0.215 1.569-0.020 0.007-1.976-4.239 1.596-0.741 1.976 4.236z"></path>
<path fill="#fff" style="fill: var(--color9, #fff)" d="M17.995 11.755c1.119-1.119 1.119-2.933 0-4.052s-2.933-1.119-4.052 0c-1.119 1.119-1.119 2.933 0 4.052s2.933 1.119 4.052 0z"></path>
<path fill="#00d7ff" style="fill: var(--color10, #00d7ff)" d="M18.297 9.728c0 1.283-1.040 2.327-2.327 2.327-1.283 0-2.327-1.040-2.327-2.327 0-1.283 1.040-2.327 2.327-2.327 1.283 0.003 2.327 1.044 2.327 2.327z"></path>
<path fill="#fff" style="fill: var(--color9, #fff)" d="M16.408 11.169h-0.633v-2.111h-0.242v-0.421c0.091 0 0.168-0.040 0.232-0.118s0.094-0.155 0.094-0.232h0.549v2.882z"></path>
<path fill="#00d7ff" style="fill: var(--color10, #00d7ff)" d="M19.337 22.196c0 0.034-0.027 0.064-0.061 0.064h-6.613c-0.034 0-0.061-0.027-0.061-0.064v-0.983c0-0.034 0.027-0.064 0.061-0.064h6.616c0.034 0 0.061 0.027 0.061 0.064v0.983h-0.003z"></path>
<path fill="#eaeaea" style="fill: var(--color1, #eaeaea)" d="M18.283 28.503h4.966c-0.054-0.249-0.246-0.445-0.492-0.509 0.013-0.054 0.020-0.111 0.020-0.172 0-0.387-0.313-0.7-0.7-0.7-0.111 0-0.215 0.027-0.306 0.071-0.148-0.33-0.478-0.555-0.865-0.555-0.407 0-0.758 0.259-0.889 0.619-0.118-0.078-0.256-0.121-0.404-0.121-0.407 0-0.737 0.33-0.737 0.737 0 0.037 0.003 0.071 0.007 0.105-0.296 0.027-0.539 0.242-0.599 0.525z"></path>
<path fill="#eaeaea" style="fill: var(--color1, #eaeaea)" d="M8.506 27.779h5.922c-0.064-0.296-0.293-0.532-0.589-0.606 0.017-0.064 0.027-0.135 0.027-0.206 0-0.461-0.374-0.835-0.835-0.835-0.131 0-0.256 0.030-0.367 0.084-0.178-0.39-0.572-0.663-1.030-0.663-0.488 0-0.902 0.306-1.061 0.741-0.138-0.091-0.303-0.145-0.481-0.145-0.485 0-0.879 0.394-0.879 0.879 0 0.044 0.003 0.084 0.010 0.125-0.354 0.030-0.643 0.29-0.717 0.626z"></path>
</symbol><symbol id="icon-back" viewBox="0 0 32 32"><path d="M16 2A15.946 15.946 0 004.687 6.687L.001 2v12h12L7.516 9.515A11.962 11.962 0 0116.001 6c6.627 0 12 5.373 12 12 0 3.584-1.572 6.801-4.063 9l2.646 3a15.96 15.96 0 005.417-12c0-8.837-7.163-16-16-16z"/></symbol></defs></svg>