<svg aria-hidden="true" style="position:absolute;width:0;height:0" xmlns="http://www.w3.org/2000/svg" overflow="hidden"><defs><symbol id="icon-award" viewBox="0 0 32 32"><path fill="var(--color1, #eaeaea)" d="M26.753 15.062h4.23a.576.576 0 00-.415-.432l-.004-.001a.598.598 0 00-.581-.744.633.633 0 00-.266.061l.004-.002a.812.812 0 00-.735-.476h-.002a.807.807 0 00-.755.523l-.002.006a.607.607 0 00-.341-.103h-.006a.63.63 0 00-.629.629c0 .03.003.06.007.09a.575.575 0 00-.505.445l-.001.004zM1.959 16.775h4.47a.606.606 0 00-.442-.456.632.632 0 00-.892-.724l.004-.002a.854.854 0 00-.778-.502H4.32a.855.855 0 00-.799.553l-.002.006a.645.645 0 00-.362-.11h-.004a.665.665 0 00-.665.665c0 .033.003.063.007.093a.61.61 0 00-.535.476zm24.248-11.99h5.325a.723.723 0 00-.524-.541l-.005-.001a.803.803 0 00.023-.183v-.001-.001a.75.75 0 00-.751-.751h-.001a.712.712 0 00-.329.077 1.017 1.017 0 00-1.877.06l-.002.007a.765.765 0 00-.428-.13h-.005a.794.794 0 00-.792.791c0 .037.003.077.007.113a.714.714 0 00-.641.554l-.001.005zM0 7.459h4.849a.656.656 0 00-.478-.494l-.005-.001a.705.705 0 00.02-.166v-.001a.684.684 0 00-.684-.684h-.001a.642.642 0 00-.299.07.926.926 0 00-1.707.057l-.002.006a.72.72 0 00-.395-.116h-.001-.001a.721.721 0 00-.721.721v.001c0 .033.003.07.007.103a.645.645 0 00-.581.501L0 7.46zm.472 20.932h3.721a.507.507 0 00-.365-.378l-.003-.001a.527.527 0 00-.508-.656c-.083 0-.16.02-.23.053a.713.713 0 00-.647-.416h-.002-.001a.708.708 0 00-.663.461l-.002.005a.547.547 0 00-.301-.09h-.002-.002a.551.551 0 00-.551.551v.001a.54.54 0 00.007.08.504.504 0 00-.452.386l-.001.003zM10.509 4.09h4.719a.642.642 0 00-.464-.481l-.004-.001a.665.665 0 00-.645-.828h-.001a.672.672 0 00-.292.066.902.902 0 00-1.664.054l-.002.006a.686.686 0 00-.385-.116h-.001-.001a.702.702 0 00-.694.806v-.004a.637.637 0 00-.565.499zm17.557 23.194h3.721a.506.506 0 00-.366-.378l-.003-.001a.526.526 0 00-.508-.655c-.083 0-.16.02-.23.053a.713.713 0 00-.647-.416h-.002-.001a.708.708 0 00-.663.461l-.002.005a.547.547 0 00-.301-.09h-.002-.001a.551.551 0 00-.551.551v.001c0 .026.003.053.007.08a.495.495 0 00-.452.386l-.001.003z"/><path fill="var(--color2, #d67412)" d="M16.32 28.421a.922.922 0 01-.968 0l-7.417-4.796c-.559-.359-.236-1.078.482-1.078H23.25c.718 0 1.041.715.482 1.078l-7.413 4.796z"/><path fill="var(--color3, #fc842c)" d="M13.729 28.292c-.053.063-.136.063-.19 0l-1.636-1.969L10.4 24.52c-.083-.103-.026-.276.093-.276h6.292c.12 0 .18.176.093.276l-1.503 1.803-1.646 1.969z"/><path fill="var(--color3, #fc842c)" d="M17.803 28.418c-.057.07-.15.07-.206 0l-1.809-2.168-1.656-1.989c-.093-.113-.026-.306.103-.306h6.931c.133 0 .196.193.103.306l-1.656 1.989-1.809 2.168z"/><path fill="var(--color3, #fc842c)" d="M15.804 29.569c-.046.056-.12.056-.166 0l-2.787-3.339c-.076-.09-.023-.246.083-.246h5.574c.106 0 .16.156.083.246l-1.334 1.596-1.453 1.743z"/><path fill="var(--color4, #f99943)" d="M19.014 24.637h-.795c-.093 0-.17-.087-.17-.193s.077-.193.17-.193h.795c.093 0 .169.086.169.193s-.076.193-.169.193zm.528 0h-.113c-.093 0-.17-.087-.17-.193s.077-.193.17-.193h.113c.093 0 .169.086.169.193s-.076.193-.169.193zm-3.877.608h-.938c-.11 0-.2-.1-.2-.226s.09-.226.2-.226h.938c.11 0 .199.1.199.226s-.09.226-.2.226zm.625 0h-.133c-.11 0-.2-.1-.2-.226s.09-.226.2-.226h.133c.11 0 .2.1.2.226s-.09.226-.2.226zm-.503 3.027h-.542c-.063 0-.116-.06-.116-.13s.053-.13.117-.13h.542c.063 0 .116.06.116.13s-.05.13-.116.13zm.363 0h-.077c-.063 0-.117-.06-.117-.13s.053-.13.117-.13h.077c.063 0 .116.06.116.13s-.05.13-.116.13zm-3.19-3.22c0 .16-.113.286-.256.286h-.772c-.14 0-.256-.13-.256-.286 0-.16.113-.286.256-.286h.772c.143 0 .256.126.256.286z"/><path fill="var(--color4, #f99943)" d="M13.536 25.465c0 .16-.113.286-.256.286h-.772c-.14 0-.256-.13-.256-.286 0-.16.113-.286.256-.286h.772c.143 0 .256.126.256.286zm4.446.229c0-.123-.09-.226-.2-.226h-.609c-.11 0-.2.1-.2.226 0 .123.09.226.2.226h.609c.11 0 .2-.1.2-.226z"/><path fill="var(--color4, #f99943)" d="M18.435 25.372c0-.123-.09-.226-.2-.226h-.605c-.11 0-.2.1-.2.226 0 .123.09.226.2.226h.605c.11-.003.2-.103.2-.226zm-.246 1.1c-.133 0-.243.123-.243.273a.3.3 0 00.026.12h-.159c-.133 0-.243.123-.243.273 0 .153.11.273.243.273h.821l.788-.945h-1.234v.007zm-4.713.197h-.16a.284.284 0 00.026-.12c0-.153-.11-.273-.243-.273h-1.237l.04.05.745.894h.828c.133 0 .243-.123.243-.273 0-.156-.11-.279-.243-.279zm2.544-.343c0 .143-.103.256-.23.256h-1.064c-.126 0-.23-.117-.23-.256 0-.143.103-.256.23-.256h1.064c.13 0 .23.113.23.256zm-.419.406c0-.083.06-.15.133-.15h-.505c.073 0 .133.066.133.15s-.06.15-.133.15h.505c-.076 0-.133-.066-.133-.15zM16.509 27.108c0 .126-.09.226-.2.226h-1.261c-.11 0-.2-.1-.2-.226s.09-.226.2-.226h1.261c.11 0 .2.103.2.226z"/><path fill="var(--color5, #bc5800)" d="M25.116 20.942a.159.159 0 00-.136-.087H6.691a.157.157 0 00-.136.087.195.195 0 00-.003.177v-.001l1.194 2.507c.026.06.083.093.14.093H23.79a.156.156 0 00.139-.092v-.001l1.194-2.507a.213.213 0 00-.007-.178l.001.001z"/><path fill="var(--color6, #aa5000)" d="M10.859 23.217H9.316c-.183 0-.329-.166-.329-.373s.146-.373.329-.373h1.543c.183 0 .329.166.329.373s-.146.373-.329.373zm1.027 0h-.22c-.183 0-.329-.166-.329-.373s.146-.373.329-.373h.22c.183 0 .329.166.329.373s-.146.373-.329.373zm8.72-.712h1.41c.166 0 .303.153.303.339s-.136.339-.303.339h-1.41c-.166 0-.303-.153-.303-.339s.136-.339.303-.339zm-.941 0h.203c.166 0 .303.153.303.339s-.136.339-.303.339h-.203c-.166 0-.302-.153-.302-.339s.136-.339.302-.339zm-3.339.093c0 .203-.146.369-.326.369h-.915c-.18 0-.326-.166-.326-.369s.146-.369.326-.369H16c.18 0 .326.166.326.369z"/><path fill="var(--color6, #aa5000)" d="M17.211 23.004c0 .209-.153.382-.339.382h-.935c-.186 0-.339-.17-.339-.382 0-.21.153-.383.339-.383h.935c.186 0 .339.173.339.383z"/><path fill="var(--color7, #dfdfdf)" d="M25.186 21.83c0 .076-.053.136-.123.136H6.399c-.067 0-.123-.06-.123-.136v-1.533c0-.076.053-.136.123-.136h18.664c.066 0 .123.06.123.136v1.533z"/><path fill="var(--color8, #c3c3c3)" d="M25.063 20.16h-.126v1.42c0 .077-.053.136-.123.136H6.276v.117c0 .076.053.136.123.136h18.664c.066 0 .123-.06.123-.136V20.3c0-.08-.057-.14-.123-.14z"/><path fill="var(--color9, #fff)" d="M8.055 20.965H7.19c-.103 0-.186-.093-.186-.209s.083-.21.186-.21h.865c.103 0 .186.093.186.21s-.083.21-.186.21zm.579 0h-.123c-.103 0-.186-.093-.186-.209s.083-.21.186-.21h.123c.103 0 .186.093.186.21-.003.117-.086.21-.186.21z"/><path fill="var(--color1, #eaeaea)" d="M18.016 26.326h4.905a.67.67 0 00-.481-.501l-.005-.001a.711.711 0 00.02-.169v-.001a.69.69 0 00-.998-.619l.004-.002a.934.934 0 00-.849-.549h-.006a.937.937 0 00-.876.606l-.002.006a.728.728 0 00-1.127.609c0 .036.003.07.007.103a.666.666 0 00-.591.514l-.001.004zm-9.658-.715h5.85a.795.795 0 00-.577-.598l-.005-.001a.825.825 0 00-.798-1.028c-.13 0-.253.03-.363.083a1.122 1.122 0 00-1.018-.655h-.003a1.11 1.11 0 00-1.042.724l-.002.008a.868.868 0 00-1.343.725c0 .043.004.083.01.123a.8.8 0 00-.708.619z"/><path fill="var(--color10, #00d7ff)" d="M15.618 20.047a7.506 7.506 0 100-15.012 7.506 7.506 0 000 15.012z"/><path fill="var(--color9, #fff)" d="M19.962 16.884a6.142 6.142 0 10-8.686-8.687 6.142 6.142 0 008.686 8.687z"/><path fill="var(--color10, #00d7ff)" d="M15.618 17.2a4.66 4.66 0 100-9.318 4.66 4.66 0 000 9.318z"/><path fill="var(--color9, #fff)" d="M18.01 14.932a3.382 3.382 0 10-4.782-4.783 3.382 3.382 0 004.782 4.783z"/><path fill="var(--color10, #00d7ff)" d="M17.406 13.478a2.02 2.02 0 00-3.571-1.887l-.005.011a2.02 2.02 0 003.571 1.887l.005-.011z"/><path fill="var(--color9, #fff)" d="M15.749 13.631a1.098 1.098 0 10-.265-2.18l.005-.001a1.098 1.098 0 10.265 2.18l-.005.001z"/><path fill="var(--color11, #ff7b00)" d="M19.942 10.642l.665-2.631 3.994-1.709-.815 2.511 2.385 1.084-3.911 1.836-2.318-1.091z"/><path fill="var(--color12, #ff9557)" d="M15.492 12.996a.517.517 0 01-.298-.276l-.001-.003a.52.52 0 01.26-.687l.003-.001 8.694-3.891a.521.521 0 01.425.952l-8.694 3.891a.502.502 0 01-.393.015l.004.001z"/></symbol><symbol id="icon-calendar" viewBox="0 0 32 32"><path fill="var(--color10, #00d7ff)" d="M11.429 14.4H8.382v3.2h3.047v-3.2zm6.096 0h-3.049v3.2h3.049v-3.2zm6.093 0h-3.047v3.2h3.047v-3.2zm3.049-11.2h-1.525V0h-3.047v3.2H9.903V0H6.856v3.2H5.331C3.64 3.2 2.3 4.64 2.3 6.4l-.016 22.4c0 1.76 1.355 3.2 3.047 3.2h21.335c1.675 0 3.047-1.44 3.047-3.2V6.4c0-1.76-1.371-3.2-3.047-3.2zm0 25.6H5.332V11.2h21.335v17.6z"/></symbol><symbol id="icon-clear" viewBox="0 0 32 32"><path fill="var(--color13, #db0837)" d="M32 3.222L28.778 0 16 12.778 3.222 0 0 3.222 12.778 16 0 28.778 3.222 32 16 19.222 28.778 32 32 28.778 19.222 16 32 3.222z"/></symbol><symbol id="icon-done" viewBox="0 0 32 32"><path fill="var(--color14, #24d40c)" d="M10.183 22.651l-7.637-7.163L0 17.877l10.183 9.552L32 6.96l-2.546-2.389-19.271 18.08z"/></symbol><symbol id="icon-fire" viewBox="0 0 32 32"><path fill="var(--color15, #ff851c)" d="M10.88 32c-3.545-11.721 3.947-16 3.947-16-.523 6.254 3.019 11.125 3.019 11.125 1.303-.393 3.79-2.236 3.79-2.236 0 2.236-1.312 7.108-1.312 7.108s4.594-3.563 6.041-9.483c1.444-5.92-2.752-11.861-2.752-11.861a15.846 15.846 0 01-3.942 11.475l.015-.017a2.22 2.22 0 00.343-.532c.498-.996 1.298-3.591.828-9.595C20.199 3.554 12.587 0 12.587 0c.656 5.136-1.312 6.318-5.92 16.068C2.057 25.814 10.88 32 10.88 32z"/></symbol><symbol id="icon-logout" viewBox="0 0 32 32"><path fill="var(--color16, #3e4e6c)" d="M26.524 15.149H9.989a1.427 1.427 0 000 2.854h16.534l-1.846 1.846a1.427 1.427 0 102.017 2.018l4.283-4.281c.032-.032.062-.066.091-.101l.002-.002.02-.028c.02-.024.04-.052.06-.08l.003-.005.016-.026c.016-.025.035-.055.053-.087l.004-.007.009-.019a.93.93 0 00.047-.099l.003-.009.006-.015c.012-.028.026-.067.038-.106l.003-.01c.003-.004.003-.01.004-.015.009-.03.019-.071.028-.112l.001-.009c.004-.012.004-.025.007-.036a1.308 1.308 0 00.014-.393l.001.006c-.003-.035-.009-.068-.015-.102l-.006-.036c-.01-.05-.02-.091-.032-.131l.003.01-.006-.015a1.206 1.206 0 00-.046-.127l.003.009-.004-.013a1.138 1.138 0 00-.055-.115l.004.008-.009-.019a1.199 1.199 0 00-.06-.1l.003.005-.015-.025a1.439 1.439 0 00-.066-.088l.002.003-.02-.026a1.614 1.614 0 00-.093-.105l-4.28-4.279c-.258-.259-.614-.419-1.009-.419s-.751.16-1.009.419a1.423 1.423 0 000 2.018l1.844 1.844z"/><path fill="var(--color16, #3e4e6c)" d="M11.673 28.25h.007c4.02 0 7.566-2.034 9.663-5.129l.026-.041a1.428 1.428 0 00-2.367-1.597l-.003.005c-1.605 2.371-4.284 3.908-7.323 3.908h-.002a8.83 8.83 0 01-8.819-8.82v-.01a8.817 8.817 0 0116.114-4.951l.02.031a1.427 1.427 0 102.362-1.602l.003.005c-2.126-3.122-5.664-5.145-9.674-5.145h-.006C5.238 4.903.001 10.139.001 16.577c0 6.436 5.236 11.674 11.673 11.674z"/></symbol><symbol id="icon-plus" viewBox="0 0 32 32"><path fill="var(--color9, #fff)" d="M2.32 14.48h12.16V2.32a1.52 1.52 0 013.04 0v12.16h12.16a1.52 1.52 0 010 3.04H17.52v12.16a1.52 1.52 0 01-3.04 0V17.52H2.32a1.52 1.52 0 010-3.04z"/></symbol><symbol id="icon-Polygon-1" viewBox="0 0 32 32"><path fill="var(--color10, #00d7ff)" d="M16 9.333l13.856 12H2.144L16 9.333z"/></symbol><symbol id="icon-save" viewBox="0 0 32 32"><path fill="var(--color10, #00d7ff)" d="M24.89 0H3.552A3.553 3.553 0 000 3.555v24.893A3.552 3.552 0 003.552 32h24.896C30.4 32 32 30.4 32 28.445V7.111L24.89.001zm3.552 28.445H3.559V3.552h19.859l5.03 5.03v19.866zM16 16a5.327 5.327 0 00-5.334 5.334c0 2.95 2.384 5.331 5.334 5.331s5.334-2.381 5.334-5.331A5.326 5.326 0 0016 16zM5.334 5.334h16v7.11h-16v-7.11z"/></symbol><symbol id="icon-Star" viewBox="0 0 32 32"><path fill="var(--color10, #00d7ff)" d="M30.607 11.164l-8.811-.832a1.528 1.528 0 01-1.259-.927l-.004-.01-3.157-7.65a1.51 1.51 0 00-2.8-.011l-.004.01-3.13 7.65a1.498 1.498 0 01-1.257.934h-.006l-8.815.834c-1.314.128-1.843 1.769-.86 2.652l6.643 5.833a1.506 1.506 0 01.478 1.499l.002-.01-1.995 8.181c-.303 1.289 1.088 2.347 2.249 1.666l7.347-4.318c.221-.131.486-.208.77-.208s.55.077.777.212l-.007-.004 7.349 4.318a1.519 1.519 0 002.244-1.675l.002.01-1.969-8.183a1.504 1.504 0 01.478-1.487l.002-.002 6.639-5.833c.96-.883.405-2.526-.909-2.652z"/></symbol><symbol id="icon-trophy" viewBox="0 0 32 32"><path d="M31.063 2.309h-4.107c.016-.455.023-.912.023-1.371a.937.937 0 00-.937-.937H5.96a.937.937 0 00-.937.937c0 .459.007.917.023 1.371H.939a.937.937 0 00-.937.937c0 4.201 1.097 8.165 3.09 11.161 1.973 2.962 4.594 4.661 7.431 4.825a9.567 9.567 0 002.032 1.705v4.167H10.98a3.452 3.452 0 00-3.447 3.449v1.573h-.069a.937.937 0 100 1.874h17.074a.937.937 0 100-1.874h-.069v-1.573a3.45 3.45 0 00-3.447-3.449h-1.573v-4.167c.709-.434 1.385-1.006 2.03-1.705 2.834-.165 5.458-1.863 7.429-4.825 1.995-2.994 3.093-6.96 3.093-11.159a.937.937 0 00-.937-.937zM4.651 13.371c-1.643-2.475-2.61-5.705-2.754-9.189h3.255c.336 4.279 1.342 8.233 2.912 11.374.251.498.51.971.782 1.417-1.559-.59-3.001-1.822-4.192-3.607zm22.698 0c-1.189 1.785-2.633 3.017-4.192 3.607.272-.446.533-.919.782-1.417 1.57-3.141 2.574-7.095 2.912-11.374h3.255c-.146 3.481-1.113 6.711-2.757 9.184z"/></symbol><symbol id="icon-trophy-2" viewBox="0 0 32 32"><path fill="var(--color10, #00d7ff)" d="M25.585 1.469h-2.614c.01-.289.015-.58.015-.873A.596.596 0 0022.39 0H9.61a.596.596 0 00-.596.596c0 .292.004.583.015.873H6.415a.596.596 0 00-.596.596c0 2.673.698 5.196 1.967 7.103 1.255 1.885 2.924 2.966 4.729 3.071.409.445.842.809 1.293 1.085v2.652h-1.002a2.196 2.196 0 00-2.193 2.195v1.001h-.044a.596.596 0 000 1.192h10.865a.596.596 0 000-1.192h-.044v-1.001a2.197 2.197 0 00-2.193-2.195h-1.001v-2.652c.451-.276.881-.64 1.292-1.085 1.804-.105 3.473-1.185 4.727-3.071 1.27-1.905 1.968-4.429 1.968-7.101a.596.596 0 00-.596-.596zM8.778 8.509C7.732 6.934 7.117 4.878 7.025 2.662h2.071c.214 2.723.854 5.239 1.853 7.238.16.317.324.618.497.902-.992-.375-1.91-1.159-2.668-2.295zm14.444 0c-.756 1.136-1.676 1.92-2.668 2.295.173-.284.339-.585.497-.902.999-1.999 1.638-4.515 1.853-7.238h2.071c-.093 2.215-.708 4.271-1.754 5.844z"/></symbol></defs></svg>